<?xml version="1.0" standalone="no"?>
<!DOCTYPE svg PUBLIC "-//W3C//DTD SVG 1.1//EN" "http://www.w3.org/Graphics/SVG/1.1/DTD/svg11.dtd" >
<svg>
<metadata>
Created by FontForge 20090622 at Thu Jun 16 10:48:11 2016
 By ffonts
Typeface &#194;&#169; (your company). 2015. All Rights Reserved
</metadata>
<defs>
<font id="Musieer" horiz-adv-x="1955" >
  <font-face 
    font-family="Musieer"
    font-weight="400"
    font-stretch="normal"
    units-per-em="2048"
    panose-1="2 0 5 0 0 0 0 0 0 0"
    ascent="1638"
    descent="-410"
    x-height="1019"
    cap-height="1437"
    bbox="-630 -640 3555 1873"
    underline-thickness="150"
    underline-position="-142"
    unicode-range="U+0020-U+2122"
  />
<missing-glyph horiz-adv-x="1024" 
 />
    <glyph glyph-name=".notdef" horiz-adv-x="1024" 
 />
    <glyph glyph-name=".null" horiz-adv-x="0" 
 />
    <glyph glyph-name="nonmarkingreturn" horiz-adv-x="508" 
 />
    <glyph glyph-name="space" unicode=" " horiz-adv-x="508" 
 />
    <glyph glyph-name="space" unicode="&#xa0;" horiz-adv-x="508" 
 />
    <glyph glyph-name="exclam" unicode="!" horiz-adv-x="962" 
d="M443 1437h505l-442 -1028h-375zM401.5 278.5q63.5 -48.5 63.5 -116.5t-63.5 -116.5t-153.5 -48.5t-153.5 48.5t-63.5 116.5t63.5 116.5t153.5 48.5t153.5 -48.5z" />
    <glyph glyph-name="quotedbl" unicode="&#x22;" horiz-adv-x="663" 
d="M154 1437h235l-259 -410h-105zM454 1437h235l-259 -410h-105z" />
    <glyph glyph-name="numbersign" unicode="#" horiz-adv-x="1876" 
d="M240 671l57 162h-144l131 404h158l71 200h505l-69 -200h250l72 203h505l-70 -203h164l-132 -404h-170l-56 -162h187l-132 -404h-193l-91 -264h-525l94 264h-235l-92 -267h-525l95 267h-113l131 404h127zM811 833l-56 -162h241l58 162h-243z" />
    <glyph glyph-name="dollar" unicode="$" horiz-adv-x="1839" 
d="M1087 599l-86 -332q359 4 386 151q27 149 -298 181h-2zM992 1126q-228 -10 -269 -90q-55 -106 202 -161zM1296 1409q314 -18 383 -74l-44 -259q-237 34 -413 46l-73 -281q57 -5 121 -10q630 -45 504 -451q-123 -392 -845 -392l-66 -254h-238l70 265q-601 54 -677 402
l422 56q116 -132 330 -172l90 343q-194 31 -365 81q-269 77 -191.5 393.5t677.5 314.5q45 0 87 -1l52 198h229z" />
    <glyph glyph-name="percent" unicode="%" horiz-adv-x="1718" 
d="M415.5 1053q119.5 -1 138.5 104t-111 115t-138.5 -104t111 -115zM669 1349q101 -80 101 -193t-101 -193t-243 -80q-143 0 -244 80t-101 193t101 193t244 80q142 0 243 -80zM1790 1417l-1543 -1420h-357l1543 1420h357zM1319.5 173q119.5 -1 138.5 104t-111 115
t-138.5 -104t111 -115zM1573 469q101 -80 101 -193t-101 -193t-243 -80q-143 0 -244 80t-101 193t101 193t244 80q142 0 243 -80z" />
    <glyph glyph-name="ampersand" unicode="&#x26;" horiz-adv-x="1650" 
d="M704 -25q-697 11 -688 417q7 281 281 387q-131 103 -56 342q99 316 636 317t629 -79l-61 -259q-698 114 -773 -52t288 -177l-63 -259l-198 -4q-261 -29 -284 -178.5t317 -151.5q300 -3 468 337l-142 17l27 236l556 -64q-202 -866 -937 -829z" />
    <glyph glyph-name="quotesingle" unicode="'" horiz-adv-x="373" 
d="M154 1437h235l-259 -410h-105z" />
    <glyph glyph-name="parenleft" unicode="(" horiz-adv-x="739" 
d="M574 1585q-380 -511 -503.5 -1046t66.5 -948l266 3q-238 388 -127.5 934t470.5 1045z" />
    <glyph glyph-name="parenright" unicode=")" horiz-adv-x="739" 
d="M371 1573q182 -499 98.5 -1045t-457.5 -934l264 -3q336 413 402 948t-132 1046z" />
    <glyph glyph-name="asterisk" unicode="*" horiz-adv-x="684" 
d="M297 1277l7 144l125 -6l-6 -127l87 93l92 -86l-98 -105l143 6l5 -125l-164 -7l109 -122l-93 -84l-96 108l-7 -144l-125 6l6 126l-86 -92l-92 85l99 106l-144 -6l-6 125l164 7l-109 122l93 84z" />
    <glyph glyph-name="plus" unicode="+" horiz-adv-x="1014" 
d="M667 773h319l-40 -217h-318l-58 -318h-267l58 318h-318l40 217h318l58 317l266 1z" />
    <glyph glyph-name="comma" unicode="," horiz-adv-x="455" 
d="M397.5 197q21.5 -61 -34.5 -165t-179 -149t-59.5 29.5t54.5 95.5q-59 29 -80.5 90.5t6.5 119.5q29 58 90.5 78.5t121.5 -9.5q59 -29 80.5 -90z" />
    <glyph glyph-name="hyphen" unicode="-" horiz-adv-x="1057" 
d="M983 773l-40 -217h-903l40 217h903z" />
    <glyph glyph-name="hyphen" unicode="&#xad;" horiz-adv-x="1057" 
d="M983 773l-40 -217h-903l40 217h903z" />
    <glyph glyph-name="period" unicode="." horiz-adv-x="431" 
d="M211 -2q-70 0 -119 45.5t-49 110.5q0 64 49 109.5t119 45.5t119 -45.5t49 -109.5q0 -65 -49 -110.5t-119 -45.5z" />
    <glyph glyph-name="slash" unicode="/" horiz-adv-x="1573" 
d="M1353 1437h214l-1345 -1437h-222z" />
    <glyph glyph-name="zero" unicode="0" horiz-adv-x="1857" 
d="M825.5 357.5q392.5 -2.5 499 353t-316.5 388t-499 -353t316.5 -388zM1604 1230.5q240 -211.5 212 -510.5q-29 -300 -309 -511.5t-648 -211.5t-608 211.5t-212 511.5q29 299 309 510.5t648 211.5t608 -211.5z" />
    <glyph glyph-name="one" unicode="1" horiz-adv-x="947" 
d="M490 1440l-190 -4l-117 -266h23q253 2 215.5 -143t-407.5 -1024l515 -3q489 1178 396 1308t-435 132z" />
    <glyph glyph-name="two" unicode="2" horiz-adv-x="1868" 
d="M1168 1525q796 -58 501 -492t-885 -747h1084l-120 -286h-1724l48 236q1521 922 1081.5 978.5t-735.5 -159.5l-277 138q231 390 1027 332z" />
    <glyph glyph-name="three" unicode="3" horiz-adv-x="1530" 
d="M647 606l24 259q368 11 348.5 177t-757.5 52l25 259q120 80 658 79t531 -317q-5 -239 -171 -342q239 -106 152 -387q-127 -406 -825 -394t-785 409l422 56q168 -191 470.5 -187t330 153.5t-224.5 178.5z" />
    <glyph glyph-name="four" unicode="4" horiz-adv-x="1979" 
d="M19 498l332 939h505l-194 -585h580l209 585h505l-493 -1437h-525l178 498h-1097z" />
    <glyph glyph-name="five" unicode="5" horiz-adv-x="1839" 
d="M1696 1429l-44 -259l-897 -2l-57 -256q1190 -65 1069.5 -501.5t-891.5 -421.5t-858 412l422 56q168 -191 543.5 -190t403 150.5t-297.5 181.5t-869 74l110 755z" />
    <glyph glyph-name="six" unicode="6" horiz-adv-x="1665" 
d="M441 598q-38 -326 338 -338t418.5 147.5t-268 189t-488.5 1.5zM882.5 1420q693.5 -5 792.5 -85l-44 -259q-1000 120 -1165 -200q1217 14 1112 -444t-876 -443t-642 725.5t822.5 705.5z" />
    <glyph glyph-name="seven" unicode="7" horiz-adv-x="1579" 
d="M1160 1440l-990 -4l-117 -266h823q253 2 156 -111t-1048 -1056l515 -3q1073 1044 1056.5 1241t-395.5 199z" />
    <glyph glyph-name="eight" unicode="8" horiz-adv-x="2043" 
d="M361 -1q-207 31 -296.5 151.5t28 315.5t450.5 240q-206 9 -228 162t233 353.5t785.5 200.5t644 -200.5t-16 -353.5t-341.5 -162q301 -45 292.5 -240t-182.5 -315.5t-402.5 -151.5t-494 -31t-472.5 31zM1490 991q-1 101 -261.5 101t-343.5 -101t261.5 -101t343.5 101z
M1440.5 387.5q74.5 158.5 -415 158.5t-505 -158.5t415 -158.5t505 158.5z" />
    <glyph glyph-name="nine" unicode="9" horiz-adv-x="1665" 
d="M1276 807q41 326 -334.5 341t-419.5 -144t266 -191.5t488 -5.5zM827.5 -11q-693.5 11 -791.5 92l46 258q999 -128 1167 190q-1217 -3 -1108 454t880 435.5t635.5 -731t-829 -698.5z" />
    <glyph glyph-name="colon" unicode=":" horiz-adv-x="507" 
d="M211 -2q-70 0 -119 45.5t-49 110.5q0 64 49 109.5t119 45.5t119 -45.5t49 -109.5q0 -65 -49 -110.5t-119 -45.5zM318 722q-70 0 -119 45.5t-49 110.5q0 64 49 109.5t119 45.5t119 -45.5t49 -109.5q0 -65 -49 -110.5t-119 -45.5z" />
    <glyph glyph-name="semicolon" unicode=";" horiz-adv-x="557" 
d="M361 722q-70 0 -119 45.5t-49 110.5q0 64 49 109.5t119 45.5t119 -45.5t49 -109.5q0 -65 -49 -110.5t-119 -45.5zM410.5 197q21.5 -61 -34.5 -165t-179 -149t-59.5 29.5t54.5 95.5q-59 29 -80.5 90.5t6.5 119.5q29 58 90.5 78.5t121.5 -9.5q59 -29 80.5 -90z" />
    <glyph glyph-name="semicolon" unicode="&#x37e;" horiz-adv-x="557" 
d="M361 722q-70 0 -119 45.5t-49 110.5q0 64 49 109.5t119 45.5t119 -45.5t49 -109.5q0 -65 -49 -110.5t-119 -45.5zM410.5 197q21.5 -61 -34.5 -165t-179 -149t-59.5 29.5t54.5 95.5q-59 29 -80.5 90.5t6.5 119.5q29 58 90.5 78.5t121.5 -9.5q59 -29 80.5 -90z" />
    <glyph glyph-name="less" unicode="&#x3c;" horiz-adv-x="1014" 
d="M874 999l-804 -393l794 -392v201l-483 179l492 231z" />
    <glyph glyph-name="equal" unicode="=" horiz-adv-x="1057" 
d="M1041 886l-40 -217h-903l40 217h903zM989 575l-40 -217h-903l40 217h903z" />
    <glyph glyph-name="greater" unicode="&#x3e;" horiz-adv-x="1014" 
d="M101 825l490 -231l-481 -179v-201l790 392l-800 393z" />
    <glyph glyph-name="question" unicode="?" horiz-adv-x="1612" 
d="M1573 1123.5q15 -316.5 -268 -394t-502 -116t-330 -202.5l-343 9q128 359 595.5 418t417 219t-1090.5 21l7 259q115 80 807 91.5t707 -305zM395.5 271q58.5 -47 58.5 -114q0 -66 -58.5 -113t-141.5 -47t-141.5 47t-58.5 113q0 67 58.5 114t141.5 47t141.5 -47z" />
    <glyph glyph-name="A" unicode="A" horiz-adv-x="2001" 
d="M1444 712l42 123q77 279 -267.5 298t-436.5 -270l-287 -874l-474 1l210 713q195 601 561.5 688t772.5 27.5t395 -361.5t-309 -1069l-455 1l140 408h-604l101 315h611z" />
    <glyph glyph-name="B" unicode="B" horiz-adv-x="2221" 
d="M845 561l72 265q721 -48 726.5 123t-353 178t-500 -277t-318.5 -841h-449l-20 10q377 1099 619.5 1272.5t812.5 155t687.5 -252t-12 -386.5t-341.5 -162q301 -45 297.5 -210t-177.5 -285.5t-402.5 -151.5t-438 -13.5t-361.5 76.5l90 295q242 -82 495 -90t332 121
t-759 173z" />
    <glyph glyph-name="C" unicode="C" 
d="M1388 1430.5q405 -48.5 556 -180.5l-145 -290q-330 141 -760.5 107.5t-464 -339.5t309 -345t770.5 56l-202 -434q-436 -54 -919 61.5t-495.5 616.5t466.5 648.5t884 99z" />
    <glyph glyph-name="D" unicode="D" horiz-adv-x="2221" 
d="M1383.5 1121q-451.5 13 -593 -271t-318.5 -841h-449l-20 10q377 1099 619.5 1272.5t812.5 155t687.5 -252t29 -578.5t-262.5 -465.5t-402.5 -151.5t-438 -13.5t-361.5 76.5l90 295q261 -107 562.5 -67.5t398.5 429t-354.5 402.5z" />
    <glyph glyph-name="E" unicode="E" 
d="M585 547q52 -136 299 -164q342 -39 770 56l-202 -434q-436 -54 -919 61.5t-495.5 616.5t466.5 648.5t884 99t556 -180.5l-145 -290q-330 141 -760 108q-314 -25 -417 -194h835l-114 -327h-758z" />
    <glyph glyph-name="F" unicode="F" horiz-adv-x="1952" 
d="M525 547l-216 -548h-414q164 1185 626 1332.5t867 99t556 -180.5l-145 -290q-330 141 -760 108q-314 -25 -417 -194h835l-114 -327h-818z" />
    <glyph glyph-name="G" unicode="G" 
d="M487.5 51.5q-437.5 130.5 -450 631.5t466.5 648.5t884 99t556 -180.5l-145 -290q-330 141 -760.5 107.5t-459.5 -327t188 -348t505 0.5l146 359h455l-270 -752q-678 -79 -1115.5 51.5z" />
    <glyph glyph-name="H" unicode="H" horiz-adv-x="2141" 
d="M513 1437h505l-493 -1437h-525zM1404 852l209 585h505l-493 -1437h-525l178 498h-525l125 354h526z" />
    <glyph glyph-name="I" unicode="I" horiz-adv-x="1032" 
d="M513 1437h505l-493 -1437h-525z" />
    <glyph glyph-name="J" unicode="J" horiz-adv-x="1979" 
d="M1709 1439h454q-264 -1185 -726 -1332.5t-867 -99t-556 180.5l145 290q330 -141 761 -127q472 17 610 552z" />
    <glyph glyph-name="K" unicode="K" horiz-adv-x="1943" 
d="M722 563l-197 -563h-525l517 1438h505l-193 -564q592 -73 819 555h528q-139 -523 -488 -724q140 -118 147 -262.5t-125 -446.5h-482q285 612 -506 567z" />
    <glyph glyph-name="L" unicode="L" horiz-adv-x="1579" 
d="M456 0l1000 4l117 266h-833q-254 -2 -216 143t408 1024l-515 3q-490 -1177 -397 -1307t436 -133z" />
    <glyph glyph-name="M" unicode="M" horiz-adv-x="2755" 
d="M1011 0l269 845q91 279 -147.5 297.5t-323.5 -270.5l-288 -872h-527l263 884q125 409 468.5 496t618.5 28q139 -40 212 -188q100 127 214 163q271 87 617.5 28t340.5 -326t-286 -1082h-504l268 925q81 209 -145.5 202.5t-322.5 -295.5l-245 -832z" />
    <glyph glyph-name="N" unicode="N" horiz-adv-x="1970" 
d="M1563.5 1419.5q405.5 -58.5 395.5 -360.5t-308 -1070h-454l288 847q77 279 -267.5 297.5t-436.5 -271.5l-285 -873l-475 -1l210 714q193 601 560 688.5t772.5 29z" />
    <glyph glyph-name="O" unicode="O" horiz-adv-x="2242" 
d="M1023 357.5q485 -2.5 574.5 353t-436.5 388t-574.5 -353t436.5 -388zM1881.5 1230.5q320.5 -211.5 320.5 -510.5q0 -300 -320.5 -511.5t-774.5 -211.5t-775 211.5t-321 511.5q0 299 321 510.5t775 211.5t774.5 -211.5z" />
    <glyph glyph-name="P" unicode="P" horiz-adv-x="2221" 
d="M2119.5 1167q114.5 -261 14 -441t-403 -246t-515.5 -48.5t-346 76.5l-10 326q311 -61 583.5 -49.5t239.5 173.5t-391.5 169t-500 -277t-318.5 -841h-449l-20 10q377 1099 619.5 1272.5t812.5 155t684.5 -279.5z" />
    <glyph glyph-name="Q" unicode="Q" horiz-adv-x="2450" 
d="M1597.5 710.5q89.5 355.5 -436.5 388t-574.5 -353t436.5 -388t574.5 353zM1256 3q-73 -6 -149 -6q-454 0 -775 211.5t-321 511.5q0 299 321 510.5t775 211.5t774.5 -211.5t320.5 -510.5q0 -201 -145 -363h381l-104 -354h-1078z" />
    <glyph glyph-name="R" unicode="R" horiz-adv-x="2187" 
d="M869 508l-10 326q311 -61 583.5 -49.5t239.5 173.5t-391.5 169t-500 -277t-318.5 -841h-449l-20 10q377 1099 619.5 1272.5t812.5 155t684.5 -279.5t14 -441t-402.5 -246q-68 -15 -264 -19l476 -458h-525z" />
    <glyph glyph-name="S" unicode="S" horiz-adv-x="1839" 
d="M1679 1335l-44 -259q-830 120 -912.5 -40t547.5 -205t503.5 -451t-897.5 -391t-858 412l422 56q168 -191 543.5 -190t403 150.5t-297.5 181.5t-594 109.5t-191.5 394t677 314.5t698.5 -82z" />
    <glyph glyph-name="T" unicode="T" horiz-adv-x="1699" 
d="M1090 1215l-417 -1215h-525l434 1216h-613l58 226l1674 -1l-71 -226h-540z" />
    <glyph glyph-name="U" unicode="U" horiz-adv-x="1970" 
d="M417 13q-406 59 -395.5 361t308.5 1069h454l-289 -847q-77 -279 267.5 -297.5t436.5 270.5l287 874h474l-210 -714q-194 -601 -560.5 -688t-772.5 -28z" />
    <glyph glyph-name="V" unicode="V" horiz-adv-x="1930" 
d="M225 4.5q-214 67.5 -198.5 369.5t280.5 1060h504l-256 -838q-104 -322 47.5 -300t987.5 1135h384q-1041 -1323 -1288 -1408.5t-461 -18z" />
    <glyph glyph-name="W" unicode="W" horiz-adv-x="2755" 
d="M1712 1435l-270 -845q-90 -279 148.5 -297.5t323.5 270.5l288 872l527 -1l-264 -884q-124 -409 -468 -495.5t-618 -27.5q-140 39 -213 188q-100 -127 -213 -163q-272 -87 -618.5 -28t-340.5 326t287 1082h503l-268 -925q-81 -209 146 -202.5t323 295.5l244 832z" />
    <glyph glyph-name="X" unicode="X" horiz-adv-x="2187" 
d="M1081 885q399 81 567 546h528q-139 -523 -488 -724q140 -118 147 -262.5t-125 -446.5h-482q223 479 -214 556q-482 -77 -540 -556h-482q45 302 136.5 446.5t301.5 262.5q-232 201 -64 724h528q-104 -465 187 -546z" />
    <glyph glyph-name="Y" unicode="Y" horiz-adv-x="1863" 
d="M1056 467q-317 -20 -543 17q-361 59 -350.5 361t144.5 588h454l-125 -366q-77 -279 222.5 -297.5t381.5 270.5l133 393h494q-41 -111 -198 -565q-219 -628 -335 -734q-151 -138 -394 -139l-937 -1l82 246h423q501 -26 548 227z" />
    <glyph glyph-name="Z" unicode="Z" horiz-adv-x="1868" 
d="M365 1427h1695l-60 -223l-1226 -948h1084l-110 -256h-1724l48 236l1251 958h-1051z" />
    <glyph glyph-name="bracketleft" unicode="[" horiz-adv-x="739" 
d="M574 1585q-380 -511 -503.5 -1046t66.5 -948l266 3q-238 388 -127.5 934t470.5 1045z" />
    <glyph glyph-name="backslash" unicode="\" horiz-adv-x="1356" 
d="M23 1440h214l1080 -1437h-222z" />
    <glyph glyph-name="bracketright" unicode="]" horiz-adv-x="739" 
d="M371 1573q182 -499 98.5 -1045t-457.5 -934l264 -3q336 413 402 948t-132 1046z" />
    <glyph glyph-name="asciicircum" unicode="^" horiz-adv-x="1014" 
d="M461 1426l-357 -354h214l223 226l189 -223h174l-308 351h-135z" />
    <glyph glyph-name="grave" unicode="`" horiz-adv-x="947" 
d="M229 1383l235 -280h129l-116 281z" />
    <glyph glyph-name="a" unicode="a" horiz-adv-x="1699" 
d="M1165.5 977.5q510.5 -76.5 510.5 -412.5q-14 -215 -121 -575h-272l-1 71q-233 -81 -736 -65.5t-530 303.5t691 327h20q332 0 586 -141q4 228 -586 262q-326 0 -606 -121l-20 20l65 264q489 144 999.5 67.5zM464 323q0 -56 252.5 -68.5t434.5 48.5q0 40 -92.5 60
t-291.5 21q-303 -11 -303 -61z" />
    <glyph glyph-name="b" unicode="b" horiz-adv-x="1724" 
d="M386 1620h454l-220 -648q240 89 669.5 5t395.5 -459q-89 -490 -693 -512t-755 72t-196 254t345 1288zM470 487q0 -181 359 -169t359 218q0 180 -359 179t-359 -228z" />
    <glyph glyph-name="c" unicode="c" horiz-adv-x="1425" 
d="M1004.5 1022q290.5 -35 398.5 -130l-104 -207q-236 86 -509 62t-297 -229t186 -233t517 26l-146 -311q-312 -39 -658 44t-355 442t334 465t633.5 71z" />
    <glyph glyph-name="d" unicode="d" horiz-adv-x="1976" 
d="M1716 1653h478q-378 -1014 -477.5 -1248.5t-257 -319.5t-504 -89t-645 86.5t-283 471.5t611 438.5t784.5 -92.5h21zM502 502q0 -194 366 -193t366 235q0 144 -366 165.5t-366 -207.5z" />
    <glyph glyph-name="e" unicode="e" horiz-adv-x="1702" 
d="M913 1002q691 3 740.5 -293t-718.5 -330h-22q-334 0 -557 133v-11q0 -162 390 -223q80 -11 200 -11q314 0 657 112v-12l-84 -285q-407 -115 -913.5 -82t-584.5 409.5t536 559.5q225 33 356 33zM517 679q232 -56 459.5 -56t282 61.5t-287.5 65.5t-454 -71z" />
    <glyph glyph-name="f" unicode="f" horiz-adv-x="1188" 
d="M1000 1640h496l-82 -246h-154q-251 3 -335.5 -142t-145.5 -350h307l-102 -246h-287l-246 -656l-457 -1q460 1366 611 1503.5t395 137.5z" />
    <glyph glyph-name="g" unicode="g" horiz-adv-x="1908" 
d="M1890 546q-218 -800 -464.5 -962t-721.5 -162q-440 0 -707 250l104 270q284 -208 695 -208t458 322q-185 -79 -633 -20t-480.5 516t861 481t888.5 -487zM983 317q333 0 344.5 212.5t-352.5 194.5t-344.5 -212.5t352.5 -194.5z" />
    <glyph glyph-name="h" unicode="h" horiz-adv-x="1665" 
d="M584 1645h455l-195 -649q93 21 282 21q520 0 489.5 -334.5t-185.5 -682.5h-454l146 428q87 299 -157.5 292.5t-336.5 -265.5l-153 -455h-475z" />
    <glyph glyph-name="i" unicode="i" horiz-adv-x="835" 
d="M370 1030h455l-350 -1030h-475z" />
    <glyph glyph-name="j" unicode="j" horiz-adv-x="916" 
d="M-103 -619l-497 -1l82 246h153q252 -2 335.5 143t470.5 1253l457 3q-456 -1367 -607 -1505t-394 -139z" />
    <glyph glyph-name="k" unicode="k" horiz-adv-x="1766" 
d="M640 482l-165 -482h-475l584 1645h455l-302 -882h264q167 0 256 256h498q-10 -244 -359 -445q140 -118 147 -262.5t-83 -315.5h-552q93 249 95 360q1 142 -363 126z" />
    <glyph glyph-name="l" unicode="l" horiz-adv-x="935" 
d="M456 0l270 4l48 133l49 133h-143q-254 -2 -226 143t493 1253l-455 3l-343 -798q-173 -410 -74 -643.5t381 -227.5z" />
    <glyph glyph-name="m" unicode="m" horiz-adv-x="2393" 
d="M910 0l146 448q87 279 -127.5 297.5t-296.5 -270.5l-163 -475h-475l141 487q120 409 431.5 496t557.5 28q125 -40 188 -188q92 127 196 163q246 87 557 28t300.5 -326t-165.5 -685h-454l146 528q77 209 -127.5 202.5t-296.5 -295.5l-123 -435z" />
    <glyph glyph-name="n" unicode="n" horiz-adv-x="1659" 
d="M1239 1011q361 -59 350.5 -361t-165.5 -650h-454l146 428q77 279 -167.5 297.5t-326.5 -270.5l-153 -455h-475l77 295q184 601 495.5 688t672.5 28z" />
    <glyph glyph-name="o" unicode="o" horiz-adv-x="1860" 
d="M893.5 314.5q315.5 -1.5 366 195.5t-292.5 215t-366 -195.5t292.5 -215zM1562 869.5q266 -149.5 266 -361.5t-266 -361.5t-642 -149.5q-377 0 -643 149.5t-266 361.5t266 361.5t643 149.5q376 0 642 -149.5z" />
    <glyph glyph-name="p" unicode="p" horiz-adv-x="1843" 
d="M126 -640h-478q378 1014 477.5 1248.5t257 319.5t504 89t645 -86.5t283 -471.5t-611 -438.5t-784.5 92.5h-20zM1340 511q0 194 -366 193t-366 -235q0 -144 366 -165.5t366 207.5z" />
    <glyph glyph-name="q" unicode="q" horiz-adv-x="1704" 
d="M1335 -598h-455l221 648q-240 -89 -669.5 -5t-396.5 459q89 490 693.5 512t755.5 -72t196 -254t-345 -1288zM1251 535q0 181 -359 169t-359 -218q0 -180 359 -179t359 228z" />
    <glyph glyph-name="r" unicode="r" horiz-adv-x="1261" 
d="M769 1022h496l-82 -246h-154q-251 3 -335.5 -142t-242.5 -634l-457 -1q229 748 380 885.5t395 137.5z" />
    <glyph glyph-name="s" unicode="s" horiz-adv-x="1642" 
d="M1460 948l-84 -210q-568 65 -628 -2.5t447 -109.5t406.5 -344t-798.5 -290t-803 345l480 1q128 -72 430.5 -68t291.5 57t-200.5 74.5t-458.5 99t-214 301.5t543.5 225t587.5 -79z" />
    <glyph glyph-name="t" unicode="t" horiz-adv-x="987" 
d="M810 738l105 302h-223l129 326l-455 3l-196 -498q-211 -557 -111 -717t422 -154l380 4l46 133l47 133h-253q-254 -2 -229 143q14 75 105 325h233z" />
    <glyph glyph-name="u" unicode="u" horiz-adv-x="1637" 
d="M372 13q-361 59 -350.5 361t165.5 650h454l-146 -428q-77 -279 167.5 -297.5t326.5 270.5l154 455h474l-77 -295q-184 -601 -495.5 -688t-672.5 -28z" />
    <glyph glyph-name="v" unicode="v" horiz-adv-x="1631" 
d="M225 4.5q-214 67.5 -198.5 369.5t160.5 650h504l-136 -428q-104 -322 47.5 -300t670.5 728h384q-724 -916 -971 -1001.5t-461 -18z" />
    <glyph glyph-name="w" unicode="w" horiz-adv-x="2416" 
d="M1477 1024l-146 -448q-87 -279 127.5 -297.5t296.5 270.5l163 475h475l-141 -487q-120 -409 -431.5 -496t-557.5 -28q-125 40 -188 188q-92 -127 -195 -163q-247 -87 -558 -28t-300.5 326t165.5 685h454l-146 -528q-77 -209 127.5 -202.5t296.5 295.5l123 435z" />
    <glyph glyph-name="x" unicode="x" horiz-adv-x="1843" 
d="M890 763h176q167 0 256 256h498q-10 -244 -359 -445q140 -118 147 -262.5t-83 -315.5h-552q93 249 95 360q1 92 -152 88q-179 6 -233 -90q-62 -111 -112 -360h-552q9 171 98.5 315.5t297.5 262.5q-233 201 -103 445h497q-53 -233 81 -254z" />
    <glyph glyph-name="y" unicode="y" horiz-adv-x="1647" 
d="M805 -4q-207 -20 -433 17q-361 59 -350.5 361t165.5 650h454l-146 -428q-77 -279 167.5 -297.5t326.5 270.5l154 455h494q-41 -111 -198 -565q-296 -832 -412 -938q-151 -138 -394 -139l-827 -1l82 246h483q252 -2 336 143q29 52 98 226z" />
    <glyph glyph-name="z" unicode="z" horiz-adv-x="1868" 
d="M445 1023h1395l-60 -223l-906 -544h784l-110 -256h-1524l48 236l931 554h-651z" />
    <glyph glyph-name="braceleft" unicode="{" horiz-adv-x="739" 
d="M574 1585q-380 -511 -503.5 -1046t66.5 -948l266 3q-238 388 -127.5 934t470.5 1045z" />
    <glyph glyph-name="bar" unicode="|" horiz-adv-x="590" 
d="M311 1531h214l-215 -1840h-222z" />
    <glyph glyph-name="braceright" unicode="}" horiz-adv-x="739" 
d="M371 1573q182 -499 98.5 -1045t-457.5 -934l264 -3q336 413 402 948t-132 1046z" />
    <glyph glyph-name="asciitilde" unicode="~" horiz-adv-x="965" 
d="M203 820.5q-69 -53.5 -130 -225.5l141 -6q58 117 107 141t113 -29t139 -87t139 -9.5t110 98t61 177.5l-116 12q-49 -128 -82.5 -155.5t-82.5 -8t-90.5 61t-85.5 72t-99 21.5t-124 -62.5z" />
    <glyph glyph-name="exclamdown" unicode="&#xa1;" horiz-adv-x="962" 
d="M536 -416h-505l442 1028h375zM577.5 742.5q-63.5 48.5 -63.5 116.5t63.5 116.5t153.5 48.5t153.5 -48.5t63.5 -116.5t-63.5 -116.5t-153.5 -48.5t-153.5 48.5z" />
    <glyph glyph-name="cent" unicode="&#xa2;" horiz-adv-x="1500" 
d="M1215 998q174 -37 252 -106l-104 -207q-130 47 -271 61l-229 -470q172 -5 397 35l-146 -311q-187 -23 -387 -3l-119 -244h-223l136 276q-32 7 -65 15q-346 83 -355 442t334 465q311 96 579 76l80 163h214zM876 749l-22 -2q-273 -24 -297 -229q-18 -158 102 -211z" />
    <glyph glyph-name="dieresis" unicode="&#xa8;" horiz-adv-x="901" 
d="M221 1079q-70 0 -119 45.5t-49 110.5q0 64 49 109.5t119 45.5t119 -45.5t49 -109.5q0 -65 -49 -110.5t-119 -45.5zM681 1079q-70 0 -119 45.5t-49 110.5q0 64 49 109.5t119 45.5t119 -45.5t49 -109.5q0 -65 -49 -110.5t-119 -45.5z" />
    <glyph glyph-name="copyright" unicode="&#xa9;" horiz-adv-x="1839" 
d="M771 117q645 -4 820 580t-520 637t-820 -580t520 -637zM1604 1230.5q240 -211.5 212 -510.5q-29 -300 -309 -511.5t-648 -211.5t-608 211.5t-212 511.5q29 299 309 510.5t648 211.5t608 -211.5zM1123 1094.5q207 -24.5 284 -92.5l-74 -148q-168 62 -363 44.5t-212 -163.5
t132.5 -166t368.5 19l-104 -222q-222 -28 -469 31t-253 315t238.5 331.5t451.5 51z" />
    <glyph glyph-name="registered" unicode="&#xae;" horiz-adv-x="1839" 
d="M771 117q645 -4 820 580t-520 637t-820 -580t520 -637zM1604 1230.5q240 -211.5 212 -510.5q-29 -300 -309 -511.5t-648 -211.5t-608 211.5t-212 511.5q29 299 309 510.5t648 211.5t608 -211.5zM770 649l-5 173q165 -33 310 -26.5t127.5 92.5t-208 89.5t-266 -147.5
t-169.5 -447h-238l-11 6q200 584 329 676t432 82.5t364 -148.5t7.5 -234.5t-214.5 -130.5q-36 -8 -140 -10l253 -244h-279z" />
    <glyph glyph-name="macron" unicode="&#xaf;" horiz-adv-x="843" 
d="M797 1353v-195h-733v195h733z" />
    <glyph glyph-name="acute" unicode="&#xb4;" horiz-adv-x="825" 
d="M405 1383l-176 -280h129l296 281z" />
    <glyph glyph-name="periodcentered" unicode="&#xb7;" horiz-adv-x="508" 
d="M269 585q-59 0 -101 38.5t-42 93.5t42 93.5t101 38.5t101 -38.5t42 -93.5t-42 -93.5t-101 -38.5z" />
    <glyph glyph-name="periodcentered" unicode="&#x2219;" horiz-adv-x="508" 
d="M269 585q-59 0 -101 38.5t-42 93.5t42 93.5t101 38.5t101 -38.5t42 -93.5t-42 -93.5t-101 -38.5z" />
    <glyph glyph-name="cedilla" unicode="&#xb8;" horiz-adv-x="773" 
d="M407 21l-42 -102q354 -14 319 -174.5t-278.5 -154t-280.5 143.5l138 40q44 -68 165 -66t117 40.5t-70 54.5t-254 29l38 207z" />
    <glyph glyph-name="questiondown" unicode="&#xbf;" horiz-adv-x="1612" 
d="M67 -102.5q-15 316.5 268 394t502 116t330 202.5l343 -9q-128 -359 -595.5 -418t-417 -219t1090.5 -21l-7 -259q-115 -80 -807 -91.5t-707 305zM1244.5 750q-58.5 47 -58.5 114q0 66 58.5 113t141.5 47t141.5 -47t58.5 -113q0 -67 -58.5 -114t-141.5 -47t-141.5 47z" />
    <glyph glyph-name="Agrave" unicode="&#xc0;" horiz-adv-x="2001" 
d="M1444 712l42 123q77 279 -267.5 298t-436.5 -270l-287 -874l-474 1l210 713q195 601 561.5 688t772.5 27.5t395 -361.5t-309 -1069l-455 1l140 408h-604l101 315h611zM748 1793l235 -280h129l-116 281z" />
    <glyph glyph-name="Aacute" unicode="&#xc1;" horiz-adv-x="2001" 
d="M1444 712l42 123q77 279 -267.5 298t-436.5 -270l-287 -874l-474 1l210 713q195 601 561.5 688t772.5 27.5t395 -361.5t-309 -1069l-455 1l140 408h-604l101 315h611zM1025 1793l-176 -280h129l296 281z" />
    <glyph glyph-name="Acircumflex" unicode="&#xc2;" horiz-adv-x="2001" 
d="M1444 712l42 123q77 279 -267.5 298t-436.5 -270l-287 -874l-474 1l210 713q195 601 561.5 688t772.5 27.5t395 -361.5t-309 -1069l-455 1l140 408h-604l101 315h611zM1187 1873l-357 -354h214l223 226l189 -223h174l-308 351h-135z" />
    <glyph glyph-name="Atilde" unicode="&#xc3;" horiz-adv-x="2001" 
d="M1444 712l42 123q77 279 -267.5 298t-436.5 -270l-287 -874l-474 1l210 713q195 601 561.5 688t772.5 27.5t395 -361.5t-309 -1069l-455 1l140 408h-604l101 315h611zM939 1732.5q-69 -53.5 -130 -225.5l141 -6q58 117 107 141t113 -29t139 -87t139 -9.5t110 98t61 177.5
l-116 12q-49 -128 -82.5 -155.5t-82.5 -8t-90.5 61t-85.5 72t-99 21.5t-124 -62.5z" />
    <glyph glyph-name="Adieresis" unicode="&#xc4;" horiz-adv-x="2001" 
d="M1444 712l42 123q77 279 -267.5 298t-436.5 -270l-287 -874l-474 1l210 713q195 601 561.5 688t772.5 27.5t395 -361.5t-309 -1069l-455 1l140 408h-604l101 315h611zM1033 1489q-70 0 -119 45.5t-49 110.5q0 64 49 109.5t119 45.5t119 -45.5t49 -109.5q0 -65 -49 -110.5
t-119 -45.5zM1493 1489q-70 0 -119 45.5t-49 110.5q0 64 49 109.5t119 45.5t119 -45.5t49 -109.5q0 -65 -49 -110.5t-119 -45.5z" />
    <glyph glyph-name="Aring" unicode="&#xc5;" horiz-adv-x="2001" 
d="M1444 712l42 123q77 279 -267.5 298t-436.5 -270l-287 -874l-474 1l210 713q195 601 561.5 688t772.5 27.5t395 -361.5t-309 -1069l-455 1l140 408h-604l101 315h611zM1382.5 1803q57.5 -54 57.5 -131q0 -76 -57.5 -130t-138.5 -54t-138 54t-57 130q0 77 57 131t138 54
t138.5 -54zM1241 1784q-53 0 -90.5 -35.5t-37.5 -85.5t37.5 -85t90.5 -35t90 35t37 85t-37 85.5t-90 35.5z" />
    <glyph glyph-name="AE" unicode="&#xc6;" horiz-adv-x="3406" 
d="M1721 172l-70 -184l-455 1l140 408h-604l101 315h611l42 123q77 279 -267.5 298t-436.5 -270l-287 -874l-474 1l210 713q195 601 561.5 688t772.5 28q205 -31 304 -123q38 16 81 30q479 147 884 98.5t556 -180.5l-145 -290q-330 141 -760 108q-314 -25 -417 -194h835
l-114 -327h-758q52 -136 299 -164q342 -39 770 56l-202 -434q-436 -54 -919 62q-153 36 -258 111z" />
    <glyph glyph-name="Ccedilla" unicode="&#xc7;" 
d="M1388 1430.5q405 -48.5 556 -180.5l-145 -290q-330 141 -760.5 107.5t-464 -339.5t309 -345t770.5 56l-202 -434q-436 -54 -919 61.5t-495.5 616.5t466.5 648.5t884 99zM991 21l-42 -102q354 -14 319 -174.5t-278.5 -154t-280.5 143.5l138 40q44 -68 165 -66t117 40.5
t-70 54.5t-254 29l38 207z" />
    <glyph glyph-name="Egrave" unicode="&#xc8;" 
d="M585 547q52 -136 299 -164q342 -39 770 56l-202 -434q-436 -54 -919 61.5t-495.5 616.5t466.5 648.5t884 99t556 -180.5l-145 -290q-330 141 -760 108q-314 -25 -417 -194h835l-114 -327h-758zM748 1793l235 -280h129l-116 281z" />
    <glyph glyph-name="Eacute" unicode="&#xc9;" 
d="M585 547q52 -136 299 -164q342 -39 770 56l-202 -434q-436 -54 -919 61.5t-495.5 616.5t466.5 648.5t884 99t556 -180.5l-145 -290q-330 141 -760 108q-314 -25 -417 -194h835l-114 -327h-758zM1025 1793l-176 -280h129l296 281z" />
    <glyph glyph-name="Ecircumflex" unicode="&#xca;" 
d="M585 547q52 -136 299 -164q342 -39 770 56l-202 -434q-436 -54 -919 61.5t-495.5 616.5t466.5 648.5t884 99t556 -180.5l-145 -290q-330 141 -760 108q-314 -25 -417 -194h835l-114 -327h-758zM948 1836l-357 -354h214l223 226l189 -223h174l-308 351h-135z" />
    <glyph glyph-name="Edieresis" unicode="&#xcb;" 
d="M585 547q52 -136 299 -164q342 -39 770 56l-202 -434q-436 -54 -919 61.5t-495.5 616.5t466.5 648.5t884 99t556 -180.5l-145 -290q-330 141 -760 108q-314 -25 -417 -194h835l-114 -327h-758zM761 1489q-70 0 -119 45.5t-49 110.5q0 64 49 109.5t119 45.5t119 -45.5
t49 -109.5q0 -65 -49 -110.5t-119 -45.5zM1221 1489q-70 0 -119 45.5t-49 110.5q0 64 49 109.5t119 45.5t119 -45.5t49 -109.5q0 -65 -49 -110.5t-119 -45.5z" />
    <glyph glyph-name="Igrave" unicode="&#xcc;" horiz-adv-x="1032" 
d="M513 1437h505l-493 -1437h-525zM510 1796l235 -280h129l-116 281z" />
    <glyph glyph-name="Iacute" unicode="&#xcd;" horiz-adv-x="1032" 
d="M513 1437h505l-493 -1437h-525zM805 1805l-176 -280h129l296 281z" />
    <glyph glyph-name="Icircumflex" unicode="&#xce;" horiz-adv-x="1032" 
d="M513 1437h505l-493 -1437h-525zM704 1842l-357 -354h214l223 226l189 -223h174l-308 351h-135z" />
    <glyph glyph-name="Idieresis" unicode="&#xcf;" horiz-adv-x="1032" 
d="M513 1437h505l-493 -1437h-525zM536 1492q-70 0 -119 45.5t-49 110.5q0 64 49 109.5t119 45.5t119 -45.5t49 -109.5q0 -65 -49 -110.5t-119 -45.5zM996 1492q-70 0 -119 45.5t-49 110.5q0 64 49 109.5t119 45.5t119 -45.5t49 -109.5q0 -65 -49 -110.5t-119 -45.5z" />
    <glyph glyph-name="Eth" unicode="&#xd0;" horiz-adv-x="2221" 
d="M331 855q164 346 292 437q242 173 812 154.5t687.5 -252t29 -578.5t-262.5 -465.5t-402.5 -151.5t-438 -13.5t-361.5 76.5l90 295q261 -107 562.5 -67.5t398.5 429t-354 402.5q-448 13 -591 -266h528l-51 -277h-599q-93 -236 -199 -569h-449l-20 10q109 318 207 559h-195
l51 277h265z" />
    <glyph glyph-name="Ntilde" unicode="&#xd1;" horiz-adv-x="1970" 
d="M1563.5 1419.5q405.5 -58.5 395.5 -360.5t-308 -1070h-454l288 847q77 279 -267.5 297.5t-436.5 -271.5l-285 -873l-475 -1l210 714q193 601 560 688.5t772.5 29zM953 1729.5q-69 -53.5 -130 -225.5l141 -6q58 117 107 141t113 -29t139 -87t139 -9.5t110 98t61 177.5
l-116 12q-49 -128 -82.5 -155.5t-82.5 -8t-90.5 61t-85.5 72t-99 21.5t-124 -62.5z" />
    <glyph glyph-name="Ograve" unicode="&#xd2;" horiz-adv-x="2242" 
d="M1023 357.5q485 -2.5 574.5 353t-436.5 388t-574.5 -353t436.5 -388zM1881.5 1230.5q320.5 -211.5 320.5 -510.5q0 -300 -320.5 -511.5t-774.5 -211.5t-775 211.5t-321 511.5q0 299 321 510.5t775 211.5t774.5 -211.5zM864 1793l235 -280h129l-116 281z" />
    <glyph glyph-name="Oacute" unicode="&#xd3;" horiz-adv-x="2242" 
d="M1023 357.5q485 -2.5 574.5 353t-436.5 388t-574.5 -353t436.5 -388zM1881.5 1230.5q320.5 -211.5 320.5 -510.5q0 -300 -320.5 -511.5t-774.5 -211.5t-775 211.5t-321 511.5q0 299 321 510.5t775 211.5t774.5 -211.5zM1141 1793l-176 -280h129l296 281z" />
    <glyph glyph-name="Ocircumflex" unicode="&#xd4;" horiz-adv-x="2242" 
d="M1023 357.5q485 -2.5 574.5 353t-436.5 388t-574.5 -353t436.5 -388zM1881.5 1230.5q320.5 -211.5 320.5 -510.5q0 -300 -320.5 -511.5t-774.5 -211.5t-775 211.5t-321 511.5q0 299 321 510.5t775 211.5t774.5 -211.5zM1064 1836l-357 -354h214l223 226l189 -223h174
l-308 351h-135z" />
    <glyph glyph-name="Otilde" unicode="&#xd5;" horiz-adv-x="2242" 
d="M1023 357.5q485 -2.5 574.5 353t-436.5 388t-574.5 -353t436.5 -388zM1881.5 1230.5q320.5 -211.5 320.5 -510.5q0 -300 -320.5 -511.5t-774.5 -211.5t-775 211.5t-321 511.5q0 299 321 510.5t775 211.5t774.5 -211.5zM832 1741.5q-69 -53.5 -130 -225.5l141 -6
q58 117 107 141t113 -29t139 -87t139 -9.5t110 98t61 177.5l-116 12q-49 -128 -82.5 -155.5t-82.5 -8t-90.5 61t-85.5 72t-99 21.5t-124 -62.5z" />
    <glyph glyph-name="Odieresis" unicode="&#xd6;" horiz-adv-x="2242" 
d="M1023 357.5q485 -2.5 574.5 353t-436.5 388t-574.5 -353t436.5 -388zM1881.5 1230.5q320.5 -211.5 320.5 -510.5q0 -300 -320.5 -511.5t-774.5 -211.5t-775 211.5t-321 511.5q0 299 321 510.5t775 211.5t774.5 -211.5zM876 1489q-70 0 -119 45.5t-49 110.5q0 64 49 109.5
t119 45.5t119 -45.5t49 -109.5q0 -65 -49 -110.5t-119 -45.5zM1336 1489q-70 0 -119 45.5t-49 110.5q0 64 49 109.5t119 45.5t119 -45.5t49 -109.5q0 -65 -49 -110.5t-119 -45.5z" />
    <glyph glyph-name="multiply" unicode="&#xd7;" horiz-adv-x="1014" 
d="M700 612l237 -212l-174 -135l-237 212l-255 -198l-199 178l255 198l-236 212l174 135l237 -212l254 198l199 -177z" />
    <glyph glyph-name="Oslash" unicode="&#xd8;" horiz-adv-x="2242" 
d="M1688 1334q102 -43 194 -103q320 -212 320 -511q0 -300 -320.5 -511.5t-774.5 -211.5q-222 0 -412 50l-156 -202h-222l204 262q-100 43 -189 102q-321 211 -321 511q0 299 321 510.5t775 211.5q222 0 411 -50l152 195h214zM752 405l529 681q-56 9 -120 13
q-526 32 -574 -353q-32 -253 165 -341zM1457 1034l-519 -673q40 -3 85 -3q485 -3 575 353q57 229 -141 323z" />
    <glyph glyph-name="Ugrave" unicode="&#xd9;" horiz-adv-x="1970" 
d="M417 13q-406 59 -395.5 361t308.5 1069h454l-289 -847q-77 -279 267.5 -297.5t436.5 270.5l287 874h474l-210 -714q-194 -601 -560.5 -688t-772.5 -28zM748 1793l235 -280h129l-116 281z" />
    <glyph glyph-name="Uacute" unicode="&#xda;" horiz-adv-x="1970" 
d="M417 13q-406 59 -395.5 361t308.5 1069h454l-289 -847q-77 -279 267.5 -297.5t436.5 270.5l287 874h474l-210 -714q-194 -601 -560.5 -688t-772.5 -28zM1218 1799l-176 -280h129l296 281z" />
    <glyph glyph-name="Ucircumflex" unicode="&#xdb;" horiz-adv-x="1970" 
d="M417 13q-406 59 -395.5 361t308.5 1069h454l-289 -847q-77 -279 267.5 -297.5t436.5 270.5l287 874h474l-210 -714q-194 -601 -560.5 -688t-772.5 -28zM1107 1851l-357 -354h214l223 226l189 -223h174l-308 351h-135z" />
    <glyph glyph-name="Udieresis" unicode="&#xdc;" horiz-adv-x="1970" 
d="M417 13q-406 59 -395.5 361t308.5 1069h454l-289 -847q-77 -279 267.5 -297.5t436.5 270.5l287 874h474l-210 -714q-194 -601 -560.5 -688t-772.5 -28zM926 1504q-70 0 -119 45.5t-49 110.5q0 64 49 109.5t119 45.5t119 -45.5t49 -109.5q0 -65 -49 -110.5t-119 -45.5z
M1386 1504q-70 0 -119 45.5t-49 110.5q0 64 49 109.5t119 45.5t119 -45.5t49 -109.5q0 -65 -49 -110.5t-119 -45.5z" />
    <glyph glyph-name="Yacute" unicode="&#xdd;" horiz-adv-x="1863" 
d="M1056 467q-317 -20 -543 17q-361 59 -350.5 361t144.5 588h454l-125 -366q-77 -279 222.5 -297.5t381.5 270.5l133 393h494q-41 -111 -198 -565q-219 -628 -335 -734q-151 -138 -394 -139l-937 -1l82 246h423q501 -26 548 227zM1152 1806l-176 -280h129l296 281z" />
    <glyph glyph-name="Thorn" unicode="&#xde;" horiz-adv-x="2230" 
d="M989 1210q183 26 424 19q570 -19 684.5 -280t14 -441t-403 -246t-515.5 -48.5t-346 76.5l-10 326q311 -61 583.5 -49.5t239.5 173.5t-391 169q-301 6 -449 -193q-244 -601 -284 -723h-489l515 1444h505z" />
    <glyph glyph-name="germandbls" unicode="&#xdf;" horiz-adv-x="1772" 
d="M1238.5 1451.5q464.5 -20.5 457.5 -336.5q-5 -239 -171 -342q239 -106 224.5 -326t-261.5 -360.5t-924 -85.5l96 294q602 -21 629.5 128.5t-224.5 178.5l-358 4l84 259q468 11 449 177q-26 131 -223.5 116.5t-287.5 -132.5q-85 -145 -474 -1252l-457 -1
q420 1208 538 1376t278 245.5t624.5 57z" />
    <glyph glyph-name="agrave" unicode="&#xe0;" horiz-adv-x="1699" 
d="M1165.5 977.5q510.5 -76.5 510.5 -412.5q-14 -215 -121 -575h-272l-1 71q-233 -81 -736 -65.5t-530 303.5t691 327h20q332 0 586 -141q4 228 -586 262q-326 0 -606 -121l-20 20l65 264q489 144 999.5 67.5zM464 323q0 -56 252.5 -68.5t434.5 48.5q0 40 -92.5 60
t-291.5 21q-303 -11 -303 -61zM603 1383l235 -280h129l-116 281z" />
    <glyph glyph-name="aacute" unicode="&#xe1;" horiz-adv-x="1699" 
d="M1165.5 977.5q510.5 -76.5 510.5 -412.5q-14 -215 -121 -575h-272l-1 71q-233 -81 -736 -65.5t-530 303.5t691 327h20q332 0 586 -141q4 228 -586 262q-326 0 -606 -121l-20 20l65 264q489 144 999.5 67.5zM464 323q0 -56 252.5 -68.5t434.5 48.5q0 40 -92.5 60
t-291.5 21q-303 -11 -303 -61zM880 1383l-176 -280h129l296 281z" />
    <glyph glyph-name="acircumflex" unicode="&#xe2;" horiz-adv-x="1699" 
d="M1165.5 977.5q510.5 -76.5 510.5 -412.5q-14 -215 -121 -575h-272l-1 71q-233 -81 -736 -65.5t-530 303.5t691 327h20q332 0 586 -141q4 228 -586 262q-326 0 -606 -121l-20 20l65 264q489 144 999.5 67.5zM464 323q0 -56 252.5 -68.5t434.5 48.5q0 40 -92.5 60
t-291.5 21q-303 -11 -303 -61zM803 1426l-357 -354h214l223 226l189 -223h174l-308 351h-135z" />
    <glyph glyph-name="atilde" unicode="&#xe3;" horiz-adv-x="1699" 
d="M1165.5 977.5q510.5 -76.5 510.5 -412.5q-14 -215 -121 -575h-272l-1 71q-233 -81 -736 -65.5t-530 303.5t691 327h20q332 0 586 -141q4 228 -586 262q-326 0 -606 -121l-20 20l65 264q489 144 999.5 67.5zM464 323q0 -56 252.5 -68.5t434.5 48.5q0 40 -92.5 60
t-291.5 21q-303 -11 -303 -61zM571 1331.5q-69 -53.5 -130 -225.5l141 -6q58 117 107 141t113 -29t139 -87t139 -9.5t110 98t61 177.5l-116 12q-49 -128 -82.5 -155.5t-82.5 -8t-90.5 61t-85.5 72t-99 21.5t-124 -62.5z" />
    <glyph glyph-name="adieresis" unicode="&#xe4;" horiz-adv-x="1699" 
d="M1165.5 977.5q510.5 -76.5 510.5 -412.5q-14 -215 -121 -575h-272l-1 71q-233 -81 -736 -65.5t-530 303.5t691 327h20q332 0 586 -141q4 228 -586 262q-326 0 -606 -121l-20 20l65 264q489 144 999.5 67.5zM464 323q0 -56 252.5 -68.5t434.5 48.5q0 40 -92.5 60
t-291.5 21q-303 -11 -303 -61zM616 1079q-70 0 -119 45.5t-49 110.5q0 64 49 109.5t119 45.5t119 -45.5t49 -109.5q0 -65 -49 -110.5t-119 -45.5zM1076 1079q-70 0 -119 45.5t-49 110.5q0 64 49 109.5t119 45.5t119 -45.5t49 -109.5q0 -65 -49 -110.5t-119 -45.5z" />
    <glyph glyph-name="aring" unicode="&#xe5;" horiz-adv-x="1699" 
d="M1165.5 977.5q510.5 -76.5 510.5 -412.5q-14 -215 -121 -575h-272l-1 71q-233 -81 -736 -65.5t-530 303.5t691 327h20q332 0 586 -141q4 228 -586 262q-326 0 -606 -121l-20 20l65 264q489 144 999.5 67.5zM464 323q0 -56 252.5 -68.5t434.5 48.5q0 40 -92.5 60
t-291.5 21q-303 -11 -303 -61zM983.5 1360q57.5 -54 57.5 -131q0 -76 -57.5 -130t-138.5 -54t-138 54t-57 130q0 77 57 131t138 54t138.5 -54zM842 1341q-53 0 -90.5 -35.5t-37.5 -85.5t37.5 -85t90.5 -35t90 35t37 85t-37 85.5t-90 35.5z" />
    <glyph glyph-name="ae" unicode="&#xe6;" horiz-adv-x="2997" 
d="M464 323q0 -56 252.5 -68.5t434.5 48.5q0 40 -92.5 60t-291.5 21q-303 -11 -303 -61zM1837 663q232 -56 459.5 -56t282 61.5t-287.5 65.5t-454 -71zM1578 71l-128 57q-401 -148 -904 -132.5t-530 303.5t691 327h20q332 0 586 -141q4 228 -586 262q-326 0 -606 -121
l-20 20l65 264q489 144 1000 68q272 -41 399 -156q123 75 312 131q225 33 356 33q691 3 740.5 -293t-718.5 -330h-22q-334 0 -557 133v-11q0 -162 390 -223q80 -11 200 -11q314 0 657 112v-12l-84 -285q-407 -115 -913 -82q-211 14 -348 87z" />
    <glyph glyph-name="ccedilla" unicode="&#xe7;" horiz-adv-x="1425" 
d="M1004.5 1022q290.5 -35 398.5 -130l-104 -207q-236 86 -509 62t-297 -229t186 -233t517 26l-146 -311q-312 -39 -658 44t-355 442t334 465t633.5 71zM721 21l-42 -102q354 -14 319 -174.5t-278.5 -154t-280.5 143.5l138 40q44 -68 165 -66t117 40.5t-70 54.5t-254 29
l38 207z" />
    <glyph glyph-name="egrave" unicode="&#xe8;" horiz-adv-x="1702" 
d="M913 1002q691 3 740.5 -293t-718.5 -330h-22q-334 0 -557 133v-11q0 -162 390 -223q80 -11 200 -11q314 0 657 112v-12l-84 -285q-407 -115 -913.5 -82t-584.5 409.5t536 559.5q225 33 356 33zM517 679q232 -56 459.5 -56t282 61.5t-287.5 65.5t-454 -71zM592 1383
l235 -280h129l-116 281z" />
    <glyph glyph-name="eacute" unicode="&#xe9;" horiz-adv-x="1702" 
d="M913 1002q691 3 740.5 -293t-718.5 -330h-22q-334 0 -557 133v-11q0 -162 390 -223q80 -11 200 -11q314 0 657 112v-12l-84 -285q-407 -115 -913.5 -82t-584.5 409.5t536 559.5q225 33 356 33zM517 679q232 -56 459.5 -56t282 61.5t-287.5 65.5t-454 -71zM869 1383
l-176 -280h129l296 281z" />
    <glyph glyph-name="ecircumflex" unicode="&#xea;" horiz-adv-x="1702" 
d="M913 1002q691 3 740.5 -293t-718.5 -330h-22q-334 0 -557 133v-11q0 -162 390 -223q80 -11 200 -11q314 0 657 112v-12l-84 -285q-407 -115 -913.5 -82t-584.5 409.5t536 559.5q225 33 356 33zM517 679q232 -56 459.5 -56t282 61.5t-287.5 65.5t-454 -71zM791 1426
l-357 -354h214l223 226l189 -223h174l-308 351h-135z" />
    <glyph glyph-name="edieresis" unicode="&#xeb;" horiz-adv-x="1702" 
d="M913 1002q691 3 740.5 -293t-718.5 -330h-22q-334 0 -557 133v-11q0 -162 390 -223q80 -11 200 -11q314 0 657 112v-12l-84 -285q-407 -115 -913.5 -82t-584.5 409.5t536 559.5q225 33 356 33zM517 679q232 -56 459.5 -56t282 61.5t-287.5 65.5t-454 -71zM604 1079
q-70 0 -119 45.5t-49 110.5q0 64 49 109.5t119 45.5t119 -45.5t49 -109.5q0 -65 -49 -110.5t-119 -45.5zM1064 1079q-70 0 -119 45.5t-49 110.5q0 64 49 109.5t119 45.5t119 -45.5t49 -109.5q0 -65 -49 -110.5t-119 -45.5z" />
    <glyph glyph-name="igrave" unicode="&#xec;" horiz-adv-x="835" 
d="M370 1030h455l-350 -1030h-475zM320 1392l235 -280h129l-116 281z" />
    <glyph glyph-name="iacute" unicode="&#xed;" horiz-adv-x="835" 
d="M370 1030h455l-350 -1030h-475zM667 1399l-176 -280h129l296 281z" />
    <glyph glyph-name="icircumflex" unicode="&#xee;" horiz-adv-x="835" 
d="M370 1030h455l-350 -1030h-475zM541 1447l-357 -354h214l223 226l189 -223h174l-308 351h-135z" />
    <glyph glyph-name="idieresis" unicode="&#xef;" horiz-adv-x="835" 
d="M370 1030h455l-350 -1030h-475zM381 1118q-70 0 -119 45.5t-49 110.5q0 64 49 109.5t119 45.5t119 -45.5t49 -109.5q0 -65 -49 -110.5t-119 -45.5zM841 1118q-70 0 -119 45.5t-49 110.5q0 64 49 109.5t119 45.5t119 -45.5t49 -109.5q0 -65 -49 -110.5t-119 -45.5z" />
    <glyph glyph-name="eth" unicode="&#xf0;" horiz-adv-x="1622" 
d="M386 413.5q5 -159.5 386 -147.5t420 338q-172 28 -491.5 -1.5t-314.5 -189zM1572 969q24 -137 17 -320q-24 -639 -803.5 -654t-776.5 443t1224 444q-7 23 -16 44l-309 -38l-20 164l193 24q-114 61 -302 40l17 259q118 80 468 -3q183 -44 264 -242l182 22l20 -164z" />
    <glyph glyph-name="ntilde" unicode="&#xf1;" horiz-adv-x="1659" 
d="M1239 1011q361 -59 350.5 -361t-165.5 -650h-454l146 428q77 279 -167.5 297.5t-326.5 -270.5l-153 -455h-475l77 295q184 601 495.5 688t672.5 28zM743 1331.5q-69 -53.5 -130 -225.5l141 -6q58 117 107 141t113 -29t139 -87t139 -9.5t110 98t61 177.5l-116 12
q-49 -128 -82.5 -155.5t-82.5 -8t-90.5 61t-85.5 72t-99 21.5t-124 -62.5z" />
    <glyph glyph-name="ograve" unicode="&#xf2;" horiz-adv-x="1860" 
d="M893.5 314.5q315.5 -1.5 366 195.5t-292.5 215t-366 -195.5t292.5 -215zM1562 869.5q266 -149.5 266 -361.5t-266 -361.5t-642 -149.5q-377 0 -643 149.5t-266 361.5t266 361.5t643 149.5q376 0 642 -149.5zM677 1383l235 -280h129l-116 281z" />
    <glyph glyph-name="oacute" unicode="&#xf3;" horiz-adv-x="1860" 
d="M893.5 314.5q315.5 -1.5 366 195.5t-292.5 215t-366 -195.5t292.5 -215zM1562 869.5q266 -149.5 266 -361.5t-266 -361.5t-642 -149.5q-377 0 -643 149.5t-266 361.5t266 361.5t643 149.5q376 0 642 -149.5zM954 1383l-176 -280h129l296 281z" />
    <glyph glyph-name="ocircumflex" unicode="&#xf4;" horiz-adv-x="1860" 
d="M893.5 314.5q315.5 -1.5 366 195.5t-292.5 215t-366 -195.5t292.5 -215zM1562 869.5q266 -149.5 266 -361.5t-266 -361.5t-642 -149.5q-377 0 -643 149.5t-266 361.5t266 361.5t643 149.5q376 0 642 -149.5zM877 1426l-357 -354h214l223 226l189 -223h174l-308 351h-135z
" />
    <glyph glyph-name="otilde" unicode="&#xf5;" horiz-adv-x="1860" 
d="M893.5 314.5q315.5 -1.5 366 195.5t-292.5 215t-366 -195.5t292.5 -215zM1562 869.5q266 -149.5 266 -361.5t-266 -361.5t-642 -149.5q-377 0 -643 149.5t-266 361.5t266 361.5t643 149.5q376 0 642 -149.5zM645 1331.5q-69 -53.5 -130 -225.5l141 -6q58 117 107 141
t113 -29t139 -87t139 -9.5t110 98t61 177.5l-116 12q-49 -128 -82.5 -155.5t-82.5 -8t-90.5 61t-85.5 72t-99 21.5t-124 -62.5z" />
    <glyph glyph-name="odieresis" unicode="&#xf6;" horiz-adv-x="1860" 
d="M893.5 314.5q315.5 -1.5 366 195.5t-292.5 215t-366 -195.5t292.5 -215zM1562 869.5q266 -149.5 266 -361.5t-266 -361.5t-642 -149.5q-377 0 -643 149.5t-266 361.5t266 361.5t643 149.5q376 0 642 -149.5zM689 1079q-70 0 -119 45.5t-49 110.5q0 64 49 109.5t119 45.5
t119 -45.5t49 -109.5q0 -65 -49 -110.5t-119 -45.5zM1149 1079q-70 0 -119 45.5t-49 110.5q0 64 49 109.5t119 45.5t119 -45.5t49 -109.5q0 -65 -49 -110.5t-119 -45.5z" />
    <glyph glyph-name="divide" unicode="&#xf7;" horiz-adv-x="1014" 
d="M983 773l-40 -217h-903l40 217h903zM455 139q-70 0 -119 45.5t-49 110.5q0 64 49 109.5t119 45.5t119 -45.5t49 -109.5q0 -65 -49 -110.5t-119 -45.5zM562 863q-70 0 -119 45.5t-49 110.5q0 64 49 109.5t119 45.5t119 -45.5t49 -109.5q0 -65 -49 -110.5t-119 -45.5z" />
    <glyph glyph-name="oslash" unicode="&#xf8;" horiz-adv-x="1860" 
d="M1426 933q71 -27 136 -63q266 -150 266 -362t-266 -361.5t-642 -149.5q-182 0 -338 35l-224 -240h-222l275 292q-70 27 -134 63q-266 149 -266 361t266 361.5t643 149.5q182 0 338 -35l231 245h214zM673 362l338 360q-21 2 -44 3q-343 18 -366 -195q-12 -114 72 -168z
M1187 678l-339 -362q22 -1 46 -1q315 -2 366 195q29 114 -73 168z" />
    <glyph glyph-name="ugrave" unicode="&#xf9;" horiz-adv-x="1637" 
d="M372 13q-361 59 -350.5 361t165.5 650h454l-146 -428q-77 -279 167.5 -297.5t326.5 270.5l154 455h474l-77 -295q-184 -601 -495.5 -688t-672.5 -28zM576 1383l235 -280h129l-116 281z" />
    <glyph glyph-name="uacute" unicode="&#xfa;" horiz-adv-x="1637" 
d="M372 13q-361 59 -350.5 361t165.5 650h454l-146 -428q-77 -279 167.5 -297.5t326.5 270.5l154 455h474l-77 -295q-184 -601 -495.5 -688t-672.5 -28zM944 1374l-176 -280h129l296 281z" />
    <glyph glyph-name="ucircumflex" unicode="&#xfb;" horiz-adv-x="1637" 
d="M372 13q-361 59 -350.5 361t165.5 650h454l-146 -428q-77 -279 167.5 -297.5t326.5 270.5l154 455h474l-77 -295q-184 -601 -495.5 -688t-672.5 -28zM776 1426l-357 -354h214l223 226l189 -223h174l-308 351h-135z" />
    <glyph glyph-name="udieresis" unicode="&#xfc;" horiz-adv-x="1637" 
d="M372 13q-361 59 -350.5 361t165.5 650h454l-146 -428q-77 -279 167.5 -297.5t326.5 270.5l154 455h474l-77 -295q-184 -601 -495.5 -688t-672.5 -28zM696 1085q-70 0 -119 45.5t-49 110.5q0 64 49 109.5t119 45.5t119 -45.5t49 -109.5q0 -65 -49 -110.5t-119 -45.5z
M1156 1085q-70 0 -119 45.5t-49 110.5q0 64 49 109.5t119 45.5t119 -45.5t49 -109.5q0 -65 -49 -110.5t-119 -45.5z" />
    <glyph glyph-name="yacute" unicode="&#xfd;" horiz-adv-x="1647" 
d="M805 -4q-207 -20 -433 17q-361 59 -350.5 361t165.5 650h454l-146 -428q-77 -279 167.5 -297.5t326.5 270.5l154 455h494q-41 -111 -198 -565q-296 -832 -412 -938q-151 -138 -394 -139l-827 -1l82 246h483q252 -2 336 143q29 52 98 226zM997 1395l-176 -280h129l296 281
z" />
    <glyph glyph-name="thorn" unicode="&#xfe;" horiz-adv-x="1843" 
d="M1340 511q0 194 -366 193t-366 -235q0 -144 366 -165.5t366 207.5zM394 100l-268 -740h-478l510 1369l343 798l455 -3l-213 -513q67 5 144 6q346 4 644.5 -86.5t283 -471.5t-611 -438.5t-784.5 92.5h-17q-4 -6 -8 -13z" />
    <glyph glyph-name="ydieresis" unicode="&#xff;" horiz-adv-x="1647" 
d="M805 -4q-207 -20 -433 17q-361 59 -350.5 361t165.5 650h454l-146 -428q-77 -279 167.5 -297.5t326.5 270.5l154 455h494q-41 -111 -198 -565q-296 -832 -412 -938q-151 -138 -394 -139l-827 -1l82 246h483q252 -2 336 143q29 52 98 226zM671 1103q-70 0 -119 45.5
t-49 110.5q0 64 49 109.5t119 45.5t119 -45.5t49 -109.5q0 -65 -49 -110.5t-119 -45.5zM1131 1103q-70 0 -119 45.5t-49 110.5q0 64 49 109.5t119 45.5t119 -45.5t49 -109.5q0 -65 -49 -110.5t-119 -45.5z" />
    <glyph glyph-name="dotlessi" unicode="&#x131;" horiz-adv-x="835" 
d="M370 1030h455l-350 -1030h-475z" />
    <glyph glyph-name="circumflex" unicode="&#x2c6;" horiz-adv-x="1014" 
d="M461 1426l-357 -354h214l223 226l189 -223h174l-308 351h-135z" />
    <glyph glyph-name="caron" unicode="&#x2c7;" horiz-adv-x="1024" 
d="M546 1072l358 353l-214 1l-223 -226l-189 223l-174 1l307 -352h135z" />
    <glyph glyph-name="uni02C9" unicode="&#x2c9;" horiz-adv-x="843" 
d="M797 1353v-195h-733v195h733z" />
    <glyph glyph-name="breve" unicode="&#x2d8;" horiz-adv-x="889" 
d="M85 1372q85 -220 210.5 -263t273.5 0t261 272l-175 30q-61 -153 -134 -177t-148.5 -4.5t-163.5 184.5z" />
    <glyph glyph-name="dotaccent" unicode="&#x2d9;" horiz-adv-x="508" 
d="M244 1105q-59 0 -101 38.5t-42 93.5t42 93.5t101 38.5t101 -38.5t42 -93.5t-42 -93.5t-101 -38.5z" />
    <glyph glyph-name="ring" unicode="&#x2da;" horiz-adv-x="1024" 
d="M665.5 1360q57.5 -54 57.5 -131q0 -76 -57.5 -130t-138.5 -54t-138 54t-57 130q0 77 57 131t138 54t138.5 -54zM524 1341q-53 0 -90.5 -35.5t-37.5 -85.5t37.5 -85t90.5 -35t90 35t37 85t-37 85.5t-90 35.5z" />
    <glyph glyph-name="ogonek" unicode="&#x2db;" horiz-adv-x="1024" 
d="M824 15q-104 -150 -91.5 -220t64.5 -94.5t128 -14t189 126.5l-91 61q-95 -61 -130 -62.5t-41 15.5t6 49t70 124z" />
    <glyph glyph-name="tilde" unicode="&#x2dc;" horiz-adv-x="965" 
d="M224 1331.5q-69 -53.5 -130 -225.5l141 -6q58 117 107 141t113 -29t139 -87t139 -9.5t110 98t61 177.5l-116 12q-49 -128 -82.5 -155.5t-82.5 -8t-90.5 61t-85.5 72t-99 21.5t-124 -62.5z" />
    <glyph glyph-name="hungarumlaut" unicode="&#x2dd;" horiz-adv-x="1024" 
d="M296 1383l-176 -280h129l296 281zM621 1383l-176 -280h129l296 281z" />
    <glyph glyph-name="quoteleft" unicode="&#x2018;" horiz-adv-x="373" 
d="M154 1437h235l-259 -410h-105z" />
    <glyph glyph-name="quoteright" unicode="&#x2019;" horiz-adv-x="373" 
d="M154 1437h235l-259 -410h-105z" />
    <glyph glyph-name="quotesinglbase" unicode="&#x201a;" horiz-adv-x="373" 
d="M135 145h235l-259 -410h-105z" />
    <glyph glyph-name="quotedblleft" unicode="&#x201c;" horiz-adv-x="663" 
d="M154 1437h235l-259 -410h-105zM454 1437h235l-259 -410h-105z" />
    <glyph glyph-name="quotedblright" unicode="&#x201d;" horiz-adv-x="663" 
d="M154 1437h235l-259 -410h-105zM454 1437h235l-259 -410h-105z" />
    <glyph glyph-name="quotedblbase" unicode="&#x201e;" horiz-adv-x="663" 
d="M154 205h235l-259 -410h-105zM454 205h235l-259 -410h-105z" />
    <glyph glyph-name="bullet" unicode="&#x2022;" horiz-adv-x="700" 
d="M534 821q74 -74 74 -179t-74 -179.5t-179 -74.5q-106 0 -180 74.5t-74 179.5t74 179t180 74q105 0 179 -74z" />
    <glyph glyph-name="ellipsis" unicode="&#x2026;" horiz-adv-x="2048" 
d="M211 -2q-70 0 -119 45.5t-49 110.5q0 64 49 109.5t119 45.5t119 -45.5t49 -109.5q0 -65 -49 -110.5t-119 -45.5zM894 -2q-70 0 -119 45.5t-49 110.5q0 64 49 109.5t119 45.5t119 -45.5t49 -109.5q0 -65 -49 -110.5t-119 -45.5zM1577 -2q-70 0 -119 45.5t-49 110.5
q0 64 49 109.5t119 45.5t119 -45.5t49 -109.5q0 -65 -49 -110.5t-119 -45.5z" />
    <glyph glyph-name="trademark" unicode="&#x2122;" horiz-adv-x="1805" 
d="M473.514 1343.03l-187.655 -486.029h-236.257l195.306 486.43h-275.857l26.1006 90.4053l753.32 -0.399414l-31.9512 -90.4062h-243.006zM1005.96 860l121.054 338.021q40.9512 111.606 -66.377 119.007q-107.328 7.40137 -145.579 -108.206l-129.604 -348.821h-237.156
l118.354 353.621q56.251 163.61 210.831 198.412q154.578 34.8027 278.332 11.2012q62.5518 -16.001 95.4023 -75.2051q45.002 50.8037 96.3027 65.2041q121.953 34.8027 277.883 11.2012q155.929 -23.6016 153.229 -130.408q-2.69922 -106.807 -128.703 -432.826h-226.806
l120.603 370.022q36.4512 83.6055 -65.4766 81.0049t-145.129 -118.207l-110.253 -332.82z" />
    <glyph glyph-name="underscore" unicode="_" horiz-adv-x="1790" 
d="M1743 92l-51 -278h-1655l51 278h1655z" />
    <glyph glyph-name="Lslash" unicode="&#x141;" horiz-adv-x="1579" 
d="M936 732l33 286l-236 -60l199 479l-515 3q-151 -362 -246 -625l-264 -67l-33 -286l195 50q-95 -315 -49 -379q93 -130 436 -133l1000 4l117 266h-833q-254 -2 -216 143q15 58 84 236z" />
    <glyph glyph-name="lslash" unicode="&#x142;" horiz-adv-x="935" 
d="M883 885l30 286l-193 -52l227 547l-455 3l-297 -692l-271 -73l-31 -285l184 49q-75 -268 -2 -440q99 -234 381 -228l270 4l48 133l49 133h-143q-254 -2 -226 143q14 74 141 395z" />
    <glyph glyph-name="OE" unicode="&#x152;" horiz-adv-x="3565" 
d="M1023 357.5q485 -2.5 574.5 353t-436.5 388t-574.5 -353t436.5 -388zM1881.5 1230.5q320.5 -211.5 320.5 -510.5q0 -300 -320.5 -511.5t-774.5 -211.5t-775 211.5t-321 511.5q0 299 321 510.5t775 211.5t774.5 -211.5zM2196 547q52 -136 299 -164q342 -39 770 56
l-202 -434q-436 -54 -919 61.5t-495.5 616.5t466.5 648.5t884 99t556 -180.5l-145 -290q-330 141 -760 108q-314 -25 -417 -194h835l-114 -327h-758z" />
    <glyph glyph-name="oe" unicode="&#x153;" horiz-adv-x="3189" 
d="M893.5 314.5q315.5 -1.5 366 195.5t-292.5 215t-366 -195.5t292.5 -215zM1562 869.5q266 -149.5 266 -361.5t-266 -361.5t-642 -149.5q-377 0 -643 149.5t-266 361.5t266 361.5t643 149.5q376 0 642 -149.5zM2400 1002q691 3 740.5 -293t-718.5 -330h-22q-334 0 -557 133
v-11q0 -162 390 -223q80 -11 200 -11q314 0 657 112v-12l-84 -285q-407 -115 -913.5 -82t-584.5 409.5t536 559.5q225 33 356 33zM2004 679q232 -56 459.5 -56t282 61.5t-287.5 65.5t-454 -71z" />
    <glyph glyph-name="Scaron" unicode="&#x160;" horiz-adv-x="1839" 
d="M1679 1335l-44 -259q-830 120 -912.5 -40t547.5 -205t503.5 -451t-897.5 -391t-858 412l422 56q168 -191 543.5 -190t403 150.5t-297.5 181.5t-594 109.5t-191.5 394t677 314.5t698.5 -82zM1106 1485l358 353l-214 1l-223 -226l-189 223l-174 1l307 -352h135z" />
    <glyph glyph-name="scaron" unicode="&#x161;" horiz-adv-x="1642" 
d="M1460 948l-84 -210q-568 65 -628 -2.5t447 -109.5t406.5 -344t-798.5 -290t-803 345l480 1q128 -72 430.5 -68t291.5 57t-200.5 74.5t-458.5 99t-214 301.5t543.5 225t587.5 -79zM1043 1078l358 353l-214 1l-223 -226l-189 223l-174 1l307 -352h135z" />
    <glyph glyph-name="Ydieresis" unicode="&#x178;" horiz-adv-x="1863" 
d="M1056 467q-317 -20 -543 17q-361 59 -350.5 361t144.5 588h454l-125 -366q-77 -279 222.5 -297.5t381.5 270.5l133 393h494q-41 -111 -198 -565q-219 -628 -335 -734q-151 -138 -394 -139l-937 -1l82 246h423q501 -26 548 227zM818 1511q-70 0 -119 45.5t-49 110.5
q0 64 49 109.5t119 45.5t119 -45.5t49 -109.5q0 -65 -49 -110.5t-119 -45.5zM1278 1511q-70 0 -119 45.5t-49 110.5q0 64 49 109.5t119 45.5t119 -45.5t49 -109.5q0 -65 -49 -110.5t-119 -45.5z" />
    <glyph glyph-name="Zcaron" unicode="&#x17d;" horiz-adv-x="1868" 
d="M365 1427h1695l-60 -223l-1226 -948h1084l-110 -256h-1724l48 236l1251 958h-1051zM1301 1482l358 353l-214 1l-223 -226l-189 223l-174 1l307 -352h135z" />
    <glyph glyph-name="zcaron" unicode="&#x17e;" horiz-adv-x="1868" 
d="M445 1023h1395l-60 -223l-906 -544h784l-110 -256h-1524l48 236l931 554h-651zM1213 1069l358 353l-214 1l-223 -226l-189 223l-174 1l307 -352h135z" />
    <glyph glyph-name="florin" unicode="&#x192;" horiz-adv-x="1152" 
d="M584 1503q151 137 395 137h496l-82 -246h-154q-251 3 -335 -142q-28 -47 -53 -100l-84 -250h298l-102 -246h-282q-142 -400 -243 -636l-8 -20h-1q-108 -248 -168 -303q-151 -138 -394 -139l-497 -1l82 246h153q252 -2 336 143q19 33 53 116l401 1051.5t189 389.5z" />
  </font>
</defs>
</svg>
